<mxfile>
    <diagram id="_aAut9FGOpw1Qjv1Djvd" name="Page-1">
        <mxGraphModel dx="1291" dy="1814" grid="1" gridSize="10" guides="1" tooltips="1" connect="1" arrows="1" fold="1" page="1" pageScale="1" pageWidth="850" pageHeight="1100" math="0" shadow="0">
            <root>
                <mxCell id="0"/>
                <mxCell id="1" parent="0"/>
                <mxCell id="53" value="" style="rounded=1;whiteSpace=wrap;html=1;" parent="1" vertex="1">
                    <mxGeometry x="332.56" y="-136" width="270" height="80" as="geometry"/>
                </mxCell>
                <mxCell id="45" value="Feature engineering&lt;br&gt;[feature selection, dimensionality reduction]" style="rounded=1;whiteSpace=wrap;html=1;" parent="1" vertex="1">
                    <mxGeometry x="592.6199999999999" y="-310" width="120" height="60" as="geometry"/>
                </mxCell>
                <mxCell id="46" value="Data imputation&lt;br&gt;(Imputer)" style="rounded=1;whiteSpace=wrap;html=1;" parent="1" vertex="1">
                    <mxGeometry x="462.61999999999995" y="-310" width="120" height="60" as="geometry"/>
                </mxCell>
                <mxCell id="47" value="Outlier detection" style="rounded=1;whiteSpace=wrap;html=1;" parent="1" vertex="1">
                    <mxGeometry x="330" y="-226" width="112.56" height="60" as="geometry"/>
                </mxCell>
                <mxCell id="48" value="Dataset Balancing" style="rounded=1;whiteSpace=wrap;html=1;" parent="1" vertex="1">
                    <mxGeometry x="452.00000000000006" y="-226" width="70.56" height="60" as="geometry"/>
                </mxCell>
                <mxCell id="49" value="Data generation&lt;br&gt;(Generator)" style="rounded=1;whiteSpace=wrap;html=1;" parent="1" vertex="1">
                    <mxGeometry x="342.56" y="-126" width="70" height="60" as="geometry"/>
                </mxCell>
                <mxCell id="50" value="Oversampling/&lt;br&gt;Undesampling" style="rounded=1;whiteSpace=wrap;html=1;" parent="1" vertex="1">
                    <mxGeometry x="422.56" y="-126" width="90.56" height="60" as="geometry"/>
                </mxCell>
                <mxCell id="51" value="Merge with previous outliers" style="rounded=1;whiteSpace=wrap;html=1;" parent="1" vertex="1">
                    <mxGeometry x="522" y="-126" width="70.56" height="60" as="geometry"/>
                </mxCell>
                <mxCell id="55" value="" style="endArrow=classic;startArrow=classic;html=1;entryX=0.5;entryY=1;entryDx=0;entryDy=0;" parent="1" target="48" edge="1">
                    <mxGeometry width="50" height="50" relative="1" as="geometry">
                        <mxPoint x="487.56" y="-136" as="sourcePoint"/>
                        <mxPoint x="545.3699999999999" y="-259" as="targetPoint"/>
                    </mxGeometry>
                </mxCell>
                <mxCell id="57" value="Classification" style="rounded=1;whiteSpace=wrap;html=1;fontStyle=1" parent="1" vertex="1">
                    <mxGeometry x="533.56" y="-226" width="90" height="60" as="geometry"/>
                </mxCell>
                <mxCell id="58" value="" style="endArrow=classic;html=1;entryX=0.5;entryY=0;entryDx=0;entryDy=0;exitX=1;exitY=0.5;exitDx=0;exitDy=0;" parent="1" source="63" target="45" edge="1">
                    <mxGeometry width="50" height="50" relative="1" as="geometry">
                        <mxPoint x="345.36999999999995" y="-249" as="sourcePoint"/>
                        <mxPoint x="395.36999999999995" y="-299" as="targetPoint"/>
                        <Array as="points">
                            <mxPoint x="732.56" y="-199"/>
                            <mxPoint x="732.56" y="-260"/>
                            <mxPoint x="732.56" y="-320"/>
                            <mxPoint x="692.56" y="-320"/>
                            <mxPoint x="652.56" y="-320"/>
                        </Array>
                    </mxGeometry>
                </mxCell>
                <mxCell id="59" value="" style="endArrow=classic;html=1;entryX=0;entryY=0.5;entryDx=0;entryDy=0;exitX=1;exitY=0.5;exitDx=0;exitDy=0;" parent="1" source="47" target="48" edge="1">
                    <mxGeometry width="50" height="50" relative="1" as="geometry">
                        <mxPoint x="335.36999999999995" y="-216" as="sourcePoint"/>
                        <mxPoint x="335.36999999999995" y="-196" as="targetPoint"/>
                    </mxGeometry>
                </mxCell>
                <mxCell id="60" value="" style="endArrow=classic;html=1;entryX=0.5;entryY=0;entryDx=0;entryDy=0;exitX=1;exitY=0.5;exitDx=0;exitDy=0;" parent="1" source="45" target="47" edge="1">
                    <mxGeometry width="50" height="50" relative="1" as="geometry">
                        <mxPoint x="853.25" y="-270" as="sourcePoint"/>
                        <mxPoint x="723.25" y="-280" as="targetPoint"/>
                        <Array as="points">
                            <mxPoint x="722.56" y="-280"/>
                            <mxPoint x="722.56" y="-260"/>
                            <mxPoint x="722.56" y="-240"/>
                            <mxPoint x="386.56" y="-240"/>
                        </Array>
                    </mxGeometry>
                </mxCell>
                <mxCell id="62" value="" style="endArrow=classic;html=1;entryX=0;entryY=0.5;entryDx=0;entryDy=0;exitX=1;exitY=0.5;exitDx=0;exitDy=0;" parent="1" source="48" target="57" edge="1">
                    <mxGeometry width="50" height="50" relative="1" as="geometry">
                        <mxPoint x="352.00000000000006" y="-166" as="sourcePoint"/>
                        <mxPoint x="361.36999999999995" y="-166" as="targetPoint"/>
                    </mxGeometry>
                </mxCell>
                <mxCell id="63" value="Evaluation" style="rounded=1;whiteSpace=wrap;html=1;" parent="1" vertex="1">
                    <mxGeometry x="632.56" y="-226" width="80" height="60" as="geometry"/>
                </mxCell>
                <mxCell id="65" value="" style="endArrow=classic;html=1;entryX=0;entryY=0.5;entryDx=0;entryDy=0;exitX=1;exitY=0.5;exitDx=0;exitDy=0;" parent="1" source="57" target="63" edge="1">
                    <mxGeometry width="50" height="50" relative="1" as="geometry">
                        <mxPoint x="591.3699999999999" y="-186" as="sourcePoint"/>
                        <mxPoint x="602" y="-186" as="targetPoint"/>
                    </mxGeometry>
                </mxCell>
                <mxCell id="67" value="" style="endArrow=classic;html=1;entryX=0;entryY=0.5;entryDx=0;entryDy=0;exitX=1;exitY=0.5;exitDx=0;exitDy=0;" parent="1" source="46" target="45" edge="1">
                    <mxGeometry width="50" height="50" relative="1" as="geometry">
                        <mxPoint x="722.6199999999999" y="-270" as="sourcePoint"/>
                        <mxPoint x="733.25" y="-270" as="targetPoint"/>
                    </mxGeometry>
                </mxCell>
                <mxCell id="69" value="Hyper parameter tuning" style="rounded=1;whiteSpace=wrap;html=1;" parent="1" vertex="1">
                    <mxGeometry x="632.56" y="-126" width="80" height="60" as="geometry"/>
                </mxCell>
                <mxCell id="235" value="Normalization/&lt;br&gt;Standardization" style="rounded=1;whiteSpace=wrap;html=1;" parent="1" vertex="1">
                    <mxGeometry x="352.56" y="-310" width="99.44" height="60" as="geometry"/>
                </mxCell>
                <mxCell id="237" value="" style="endArrow=classic;html=1;entryX=0;entryY=0.5;entryDx=0;entryDy=0;exitX=1;exitY=0.5;exitDx=0;exitDy=0;" parent="1" source="235" target="46" edge="1">
                    <mxGeometry width="50" height="50" relative="1" as="geometry">
                        <mxPoint x="602.6199999999999" y="-260" as="sourcePoint"/>
                        <mxPoint x="612.6199999999999" y="-260" as="targetPoint"/>
                    </mxGeometry>
                </mxCell>
                <mxCell id="238" value="" style="endArrow=classic;html=1;exitX=0.5;exitY=1;exitDx=0;exitDy=0;" parent="1" source="47" edge="1">
                    <mxGeometry width="50" height="50" relative="1" as="geometry">
                        <mxPoint x="460.00000000000006" y="-189" as="sourcePoint"/>
                        <mxPoint x="386.56" y="-136" as="targetPoint"/>
                    </mxGeometry>
                </mxCell>
                <mxCell id="239" value="" style="endArrow=classic;html=1;entryX=0;entryY=0.5;entryDx=0;entryDy=0;" parent="1" target="235" edge="1">
                    <mxGeometry width="50" height="50" relative="1" as="geometry">
                        <mxPoint x="332.56" y="-280" as="sourcePoint"/>
                        <mxPoint x="396.56" y="-126" as="targetPoint"/>
                    </mxGeometry>
                </mxCell>
                <mxCell id="241" value="" style="endArrow=classic;html=1;exitX=0.25;exitY=0;exitDx=0;exitDy=0;entryX=0.5;entryY=1;entryDx=0;entryDy=0;" parent="1" source="69" target="57" edge="1">
                    <mxGeometry width="50" height="50" relative="1" as="geometry">
                        <mxPoint x="396.28000000000003" y="-156" as="sourcePoint"/>
                        <mxPoint x="396.56" y="-126" as="targetPoint"/>
                        <Array as="points">
                            <mxPoint x="652.56" y="-150"/>
                            <mxPoint x="578.56" y="-150"/>
                        </Array>
                    </mxGeometry>
                </mxCell>
                <mxCell id="242" value="" style="endArrow=classic;html=1;exitX=0.5;exitY=1;exitDx=0;exitDy=0;entryX=0.5;entryY=0;entryDx=0;entryDy=0;" parent="1" source="63" target="69" edge="1">
                    <mxGeometry width="50" height="50" relative="1" as="geometry">
                        <mxPoint x="406.28000000000003" y="-146" as="sourcePoint"/>
                        <mxPoint x="406.56" y="-116" as="targetPoint"/>
                    </mxGeometry>
                </mxCell>
            </root>
        </mxGraphModel>
    </diagram>
</mxfile>